<svg id="Layer_1" data-name="Layer 1" xmlns="http://www.w3.org/2000/svg" xmlns:xlink="http://www.w3.org/1999/xlink" viewBox="0 0 510 510"><defs><style>.cls-1{stroke:#f44336;stroke-miterlimit:10;stroke-width:5px;fill:url(#radial-gradient);}.cls-2{fill:url(#linear-gradient);}.cls-3{fill:url(#linear-gradient-2);}.cls-4{fill:url(#linear-gradient-3);}.cls-5{fill:url(#linear-gradient-4);}.cls-6{fill:url(#linear-gradient-5);}.cls-7{fill:url(#linear-gradient-6);}.cls-8{fill:url(#linear-gradient-7);}</style><radialGradient id="radial-gradient" cx="255" cy="255" r="417.31" gradientUnits="userSpaceOnUse"><stop offset="0" stop-color="#616162"/><stop offset="0.03" stop-color="#5d5d5e"/><stop offset="0.2" stop-color="#49494a"/><stop offset="0.39" stop-color="#3b3b3b"/><stop offset="0.63" stop-color="#333"/><stop offset="1" stop-color="#303030"/></radialGradient><linearGradient id="linear-gradient" x1="252.26" y1="96.75" x2="258.71" y2="281.19" gradientTransform="translate(301.76 -136.7) rotate(56)" gradientUnits="userSpaceOnUse"><stop offset="0" stop-color="#f44336"/><stop offset="0.19" stop-color="#f04235"/><stop offset="0.37" stop-color="#e43f32"/><stop offset="0.56" stop-color="#d0392e"/><stop offset="0.74" stop-color="#b53228"/><stop offset="0.92" stop-color="#912920"/><stop offset="1" stop-color="#80241c"/></linearGradient><linearGradient id="linear-gradient-2" x1="290.85" y1="305.15" x2="171.68" y2="173.73" gradientTransform="translate(242.59 -142.41) rotate(45.67)" xlink:href="#linear-gradient"/><linearGradient id="linear-gradient-3" x1="200.77" y1="226.33" x2="209.81" y2="400.83" gradientTransform="matrix(1, 0.01, -0.01, 1.22, -30.43, -153.77)" gradientUnits="userSpaceOnUse"><stop offset="0" stop-color="#f44336"/><stop offset="0.36" stop-color="#ce392d"/><stop offset="1" stop-color="#80241c"/></linearGradient><linearGradient id="linear-gradient-4" x1="262.97" y1="255.59" x2="168.05" y2="330.93" gradientTransform="translate(-143.96 238.44) rotate(-45)" xlink:href="#linear-gradient-3"/><linearGradient id="linear-gradient-5" x1="174.41" y1="249.94" x2="171.57" y2="429.96" gradientUnits="userSpaceOnUse"><stop offset="0" stop-color="#f44336"/><stop offset="0.16" stop-color="#e94034"/><stop offset="0.44" stop-color="#cc382d"/><stop offset="0.8" stop-color="#9d2c22"/><stop offset="1" stop-color="#80241c"/></linearGradient><linearGradient id="linear-gradient-6" x1="311.82" y1="435.94" x2="321.83" y2="219.6" gradientTransform="matrix(1, 0, 0, 1, 0, 0)" xlink:href="#linear-gradient-3"/><linearGradient id="linear-gradient-7" x1="228.54" y1="294.84" x2="514.58" y2="216.34" gradientTransform="translate(587.28 -45.94) rotate(90)" gradientUnits="userSpaceOnUse"><stop offset="0" stop-color="#f44336"/><stop offset="0.26" stop-color="#d33a2f"/><stop offset="0.76" stop-color="#972a21"/><stop offset="1" stop-color="#80241c"/></linearGradient></defs><title>logo</title><circle class="cls-1" cx="255" cy="255" r="252.5"/><polygon class="cls-2" points="359.74 143.47 237.93 227.72 224.17 207.85 346 123.59 325.34 93.73 421.95 85.84 380.47 173.45 359.74 143.47"/><rect class="cls-3" x="220.76" y="155.59" width="24.16" height="72.45" transform="translate(37.56 -40.11) rotate(10.33)"/><rect class="cls-4" x="158.06" y="109.39" width="24.16" height="181.41" transform="matrix(0.57, 0.82, -0.82, 0.57, 237.31, -55.12)"/><rect class="cls-5" x="200.76" y="250.76" width="30.17" height="84.48" transform="translate(269.78 -68.27) rotate(45)"/><polygon class="cls-6" points="213.53 314.35 213.42 314.46 213.42 411 183.25 411 183.25 326.75 132.46 275.95 153.79 254.61 213.53 314.35"/><rect class="cls-7" x="301.52" y="254.12" width="30.17" height="156.88"/><rect class="cls-8" x="301.53" y="209.12" width="30.17" height="123.09" transform="translate(45.33 585.81) rotate(-90)"/><path d="M190,427.41v19.17h-1.14V427.41h-5.14v-1.14h11.42v1.14Z" transform="translate(-0.61 -1.47)"/><path d="M215.55,439.52l-.34,0h-3.45v7h-1.15V426.27H216a6.72,6.72,0,0,1,3.94,1.94,6.67,6.67,0,0,1-3.08,11.15l4.68,7.22h-1.41Zm-3.79-12.1v11h3.45a5.48,5.48,0,0,0,0-11Z" transform="translate(-0.61 -1.47)"/><path d="M247.52,426.27v1.14h-9v8.44h9V437h-9v8.44h9v1.14H237.36V426.27Z" transform="translate(-0.61 -1.47)"/><path d="M263.93,426.27h1.26l10.43,18.06V426.27h1.14v20.31h-1.14l-10.55-18.24v18.24h-1.14Z" transform="translate(-0.61 -1.47)"/><path d="M294.64,426.29h.09c3.34,0,5.93.93,7.77,2.77a10.44,10.44,0,0,1,0,14.73c-1.84,1.84-4.43,2.77-7.77,2.77h-.09v0H293.5V426.27h1.14Zm0,1.17V445.4h.09q4.51,0,6.94-2.44a9.23,9.23,0,0,0,0-13.07q-2.43-2.43-6.94-2.43Z" transform="translate(-0.61 -1.47)"/><path d="M326.69,435.33a8.56,8.56,0,0,1-3.43-2,4.3,4.3,0,0,1,6.1-6.07,3.73,3.73,0,0,1,1,1.51l-1,.41a3.14,3.14,0,0,0-.75-1.14,3.16,3.16,0,0,0-4.46,4.48,8.31,8.31,0,0,0,2.38,1.56,10,10,0,0,1,4.1,2.45,5.75,5.75,0,0,1,1.77,4.24,6,6,0,0,1-6,6,6.07,6.07,0,0,1-5.94-5.05l1.08-.39a4.91,4.91,0,0,0,4.86,4.31,4.89,4.89,0,0,0,3.47-8.35A9.29,9.29,0,0,0,326.69,435.33Z" transform="translate(-0.61 -1.47)"/></svg>